<svg width="128" height="128" viewBox="0 0 128 128" fill="none" xmlns="http://www.w3.org/2000/svg">
  <defs>
    <linearGradient id="bg4" x1="14" y1="10" x2="114" y2="118" gradientUnits="userSpaceOnUse">
      <stop stop-color="#475569"/>
      <stop offset="1" stop-color="#94A3B8"/>
    </linearGradient>
  </defs>
  <rect width="128" height="128" rx="28" fill="url(#bg4)"/>
  <circle cx="26" cy="24" r="14" fill="#E2E8F0" fill-opacity="0.35"/>
  <path d="M12 104C23 85 42 74 64 74C86 74 105 85 116 104V128H12V104Z" fill="#0F172A"/>
  <circle cx="64" cy="48" r="22" fill="#F8FAFC"/>
  <path d="M46 80C51 73 57 69 64 69C71 69 77 73 82 80V97H46V80Z" fill="#CBD5E1"/>
  <path d="M43 39C48 29 56 23 64 23C72 23 80 29 85 39C79 36 73 35 64 35C55 35 49 36 43 39Z" fill="#1E293B"/>
  <path d="M81 22L109 30L88 48L81 22Z" fill="#BFDBFE" fill-opacity="0.6"/>
  <path d="M88 90C93 84 100 81 108 81C113 81 117 83 121 86L107 110C99 110 92 106 88 99C86 96 86 93 88 90Z" fill="#E2E8F0"/>
  <path d="M92 97L108 92M96 86L104 104" stroke="#475569" stroke-width="3" stroke-linecap="round"/>
</svg>
